<svg xmlns="http://www.w3.org/2000/svg" viewBox="0 0 400 300" width="400" height="300" role="img" aria-label="Imagen no disponible">
  <rect width="400" height="300" fill="#18181b"/>
  <g fill="none" stroke="#3f3f46" stroke-width="2" opacity="0.5">
    <path d="M0 300 L400 300"/>
  </g>
  <!-- Silueta simple de bota de fútbol -->
  <g transform="translate(70,95)" fill="none" stroke="#84cc16" stroke-width="3.5" stroke-linejoin="round" stroke-linecap="round" opacity="0.55">
    <path d="M12 8 C40 2, 92 0, 138 14 C176 26, 214 46, 246 54 C258 57, 262 66, 258 76 L254 88 C252 94, 246 97, 240 97 L26 97 C16 97, 8 90, 7 80 L2 30 C1 18, 4 10, 12 8 Z"/>
    <path d="M40 12 L52 92" opacity="0.7"/>
    <path d="M70 16 L80 94" opacity="0.7"/>
    <path d="M100 24 L108 95" opacity="0.7"/>
  </g>
  <!-- Tacos -->
  <g fill="#84cc16" opacity="0.45">
    <rect x="88" y="196" width="16" height="9" rx="2"/>
    <rect x="140" y="196" width="16" height="9" rx="2"/>
    <rect x="196" y="196" width="16" height="9" rx="2"/>
    <rect x="252" y="196" width="16" height="9" rx="2"/>
  </g>
  <text x="200" y="243" text-anchor="middle" font-family="Inter, system-ui, sans-serif" font-size="13" font-weight="700" fill="#84cc16" letter-spacing="2.5">CANCHA.BOTAS</text>
  <text x="200" y="264" text-anchor="middle" font-family="Inter, system-ui, sans-serif" font-size="11" fill="#71717a" letter-spacing="1">Imagen no disponible</text>
</svg>
